<mxfile host="app.diagrams.net" agent="Mozilla/5.0 (Windows NT 10.0; Win64; x64) AppleWebKit/537.36 (KHTML, like Gecko) Chrome/133.0.0.0 Safari/537.36 Edg/133.0.0.0" version="26.0.16">
  <diagram name="PÃ¡gina-1" id="NPsdAxxp3_cPU-tjDxfc">
    <mxGraphModel dx="1687" dy="922" grid="1" gridSize="10" guides="1" tooltips="1" connect="1" arrows="1" fold="1" page="1" pageScale="1" pageWidth="827" pageHeight="1169" math="0" shadow="0">
      <root>
        <mxCell id="0" />
        <mxCell id="1" parent="0" />
        <mxCell id="EZ-986wShj_iPQbKf8kO-1" value="Product" style="rounded=1;whiteSpace=wrap;html=1;" parent="1" vertex="1">
          <mxGeometry x="390" y="400" width="120" height="60" as="geometry" />
        </mxCell>
        <mxCell id="EZ-986wShj_iPQbKf8kO-2" value="Order" style="rounded=1;whiteSpace=wrap;html=1;" parent="1" vertex="1">
          <mxGeometry x="800" y="400" width="120" height="60" as="geometry" />
        </mxCell>
        <mxCell id="EZ-986wShj_iPQbKf8kO-3" value="Supplier" style="rounded=1;whiteSpace=wrap;html=1;" parent="1" vertex="1">
          <mxGeometry x="1200" y="400" width="120" height="60" as="geometry" />
        </mxCell>
        <mxCell id="EZ-986wShj_iPQbKf8kO-6" value="" style="endArrow=none;html=1;rounded=0;exitX=1;exitY=0.5;exitDx=0;exitDy=0;entryX=0;entryY=0.5;entryDx=0;entryDy=0;shape=link;" parent="1" source="8_oBKm8_RoXfyE2QBQ6X-19" target="EZ-986wShj_iPQbKf8kO-2" edge="1">
          <mxGeometry width="50" height="50" relative="1" as="geometry">
            <mxPoint x="680" y="420" as="sourcePoint" />
            <mxPoint x="730" y="370" as="targetPoint" />
          </mxGeometry>
        </mxCell>
        <mxCell id="8_oBKm8_RoXfyE2QBQ6X-27" value="M" style="edgeLabel;html=1;align=center;verticalAlign=middle;resizable=0;points=[];" vertex="1" connectable="0" parent="EZ-986wShj_iPQbKf8kO-6">
          <mxGeometry x="0.5" y="-5" relative="1" as="geometry">
            <mxPoint x="15" y="-15" as="offset" />
          </mxGeometry>
        </mxCell>
        <mxCell id="8_oBKm8_RoXfyE2QBQ6X-29" value="N" style="edgeLabel;html=1;align=center;verticalAlign=middle;resizable=0;points=[];" vertex="1" connectable="0" parent="EZ-986wShj_iPQbKf8kO-6">
          <mxGeometry x="-0.48" y="10" relative="1" as="geometry">
            <mxPoint x="-206" as="offset" />
          </mxGeometry>
        </mxCell>
        <mxCell id="8_oBKm8_RoXfyE2QBQ6X-1" value="" style="endArrow=none;html=1;rounded=0;exitX=1;exitY=0.5;exitDx=0;exitDy=0;shape=link;" edge="1" parent="1" target="8_oBKm8_RoXfyE2QBQ6X-22">
          <mxGeometry width="50" height="50" relative="1" as="geometry">
            <mxPoint x="920" y="429.5" as="sourcePoint" />
            <mxPoint x="1110" y="429.5" as="targetPoint" />
          </mxGeometry>
        </mxCell>
        <mxCell id="8_oBKm8_RoXfyE2QBQ6X-32" value="N" style="edgeLabel;html=1;align=center;verticalAlign=middle;resizable=0;points=[];" vertex="1" connectable="0" parent="8_oBKm8_RoXfyE2QBQ6X-1">
          <mxGeometry x="-0.4952" y="4" relative="1" as="geometry">
            <mxPoint x="-20" y="-11" as="offset" />
          </mxGeometry>
        </mxCell>
        <mxCell id="8_oBKm8_RoXfyE2QBQ6X-2" value="name" style="ellipse;whiteSpace=wrap;html=1;" vertex="1" parent="1">
          <mxGeometry x="420" y="320" width="60" height="30" as="geometry" />
        </mxCell>
        <mxCell id="8_oBKm8_RoXfyE2QBQ6X-5" value="&lt;u&gt;&lt;b&gt;code&lt;/b&gt;&lt;/u&gt;" style="ellipse;whiteSpace=wrap;html=1;" vertex="1" parent="1">
          <mxGeometry x="330" y="350" width="60" height="30" as="geometry" />
        </mxCell>
        <mxCell id="8_oBKm8_RoXfyE2QBQ6X-6" value="cost" style="ellipse;whiteSpace=wrap;html=1;" vertex="1" parent="1">
          <mxGeometry x="300" y="415" width="60" height="30" as="geometry" />
        </mxCell>
        <mxCell id="8_oBKm8_RoXfyE2QBQ6X-7" value="IVA" style="ellipse;whiteSpace=wrap;html=1;" vertex="1" parent="1">
          <mxGeometry x="340" y="485" width="60" height="30" as="geometry" />
        </mxCell>
        <mxCell id="8_oBKm8_RoXfyE2QBQ6X-11" value="nStock" style="ellipse;whiteSpace=wrap;html=1;dashed=1;dashPattern=8 8;" vertex="1" parent="1">
          <mxGeometry x="440" y="485" width="60" height="30" as="geometry" />
        </mxCell>
        <mxCell id="8_oBKm8_RoXfyE2QBQ6X-14" value="" style="endArrow=none;html=1;rounded=0;entryX=0.5;entryY=1;entryDx=0;entryDy=0;exitX=0.5;exitY=0;exitDx=0;exitDy=0;" edge="1" parent="1" source="EZ-986wShj_iPQbKf8kO-1" target="8_oBKm8_RoXfyE2QBQ6X-2">
          <mxGeometry width="50" height="50" relative="1" as="geometry">
            <mxPoint x="700" y="410" as="sourcePoint" />
            <mxPoint x="750" y="360" as="targetPoint" />
          </mxGeometry>
        </mxCell>
        <mxCell id="8_oBKm8_RoXfyE2QBQ6X-15" value="" style="endArrow=none;html=1;rounded=0;" edge="1" parent="1" source="EZ-986wShj_iPQbKf8kO-1" target="8_oBKm8_RoXfyE2QBQ6X-5">
          <mxGeometry width="50" height="50" relative="1" as="geometry">
            <mxPoint x="460" y="410" as="sourcePoint" />
            <mxPoint x="460" y="360" as="targetPoint" />
          </mxGeometry>
        </mxCell>
        <mxCell id="8_oBKm8_RoXfyE2QBQ6X-16" value="" style="endArrow=none;html=1;rounded=0;entryX=1;entryY=0.5;entryDx=0;entryDy=0;" edge="1" parent="1" source="EZ-986wShj_iPQbKf8kO-1" target="8_oBKm8_RoXfyE2QBQ6X-6">
          <mxGeometry width="50" height="50" relative="1" as="geometry">
            <mxPoint x="470" y="420" as="sourcePoint" />
            <mxPoint x="470" y="370" as="targetPoint" />
          </mxGeometry>
        </mxCell>
        <mxCell id="8_oBKm8_RoXfyE2QBQ6X-17" value="" style="endArrow=none;html=1;rounded=0;" edge="1" parent="1" source="EZ-986wShj_iPQbKf8kO-1" target="8_oBKm8_RoXfyE2QBQ6X-7">
          <mxGeometry width="50" height="50" relative="1" as="geometry">
            <mxPoint x="410" y="460" as="sourcePoint" />
            <mxPoint x="480" y="380" as="targetPoint" />
          </mxGeometry>
        </mxCell>
        <mxCell id="8_oBKm8_RoXfyE2QBQ6X-18" value="" style="endArrow=none;html=1;rounded=0;" edge="1" parent="1" source="EZ-986wShj_iPQbKf8kO-1" target="8_oBKm8_RoXfyE2QBQ6X-11">
          <mxGeometry width="50" height="50" relative="1" as="geometry">
            <mxPoint x="490" y="440" as="sourcePoint" />
            <mxPoint x="490" y="390" as="targetPoint" />
          </mxGeometry>
        </mxCell>
        <mxCell id="8_oBKm8_RoXfyE2QBQ6X-20" value="" style="endArrow=none;html=1;rounded=0;exitX=1;exitY=0.5;exitDx=0;exitDy=0;entryX=0;entryY=0.5;entryDx=0;entryDy=0;" edge="1" parent="1" source="EZ-986wShj_iPQbKf8kO-1" target="8_oBKm8_RoXfyE2QBQ6X-19">
          <mxGeometry width="50" height="50" relative="1" as="geometry">
            <mxPoint x="510" y="430" as="sourcePoint" />
            <mxPoint x="700" y="430" as="targetPoint" />
          </mxGeometry>
        </mxCell>
        <mxCell id="8_oBKm8_RoXfyE2QBQ6X-19" value="item" style="rhombus;whiteSpace=wrap;html=1;" vertex="1" parent="1">
          <mxGeometry x="620" y="390" width="80" height="80" as="geometry" />
        </mxCell>
        <mxCell id="8_oBKm8_RoXfyE2QBQ6X-22" value="supply" style="rhombus;whiteSpace=wrap;html=1;" vertex="1" parent="1">
          <mxGeometry x="1040" y="390" width="80" height="80" as="geometry" />
        </mxCell>
        <mxCell id="8_oBKm8_RoXfyE2QBQ6X-23" value="" style="endArrow=none;html=1;rounded=0;" edge="1" parent="1" source="8_oBKm8_RoXfyE2QBQ6X-22" target="EZ-986wShj_iPQbKf8kO-3">
          <mxGeometry width="50" height="50" relative="1" as="geometry">
            <mxPoint x="1110" y="429.5" as="sourcePoint" />
            <mxPoint x="1230" y="430" as="targetPoint" />
          </mxGeometry>
        </mxCell>
        <mxCell id="8_oBKm8_RoXfyE2QBQ6X-34" value="1" style="edgeLabel;html=1;align=center;verticalAlign=middle;resizable=0;points=[];" vertex="1" connectable="0" parent="8_oBKm8_RoXfyE2QBQ6X-23">
          <mxGeometry x="0.4167" y="-4" relative="1" as="geometry">
            <mxPoint x="13" y="-14" as="offset" />
          </mxGeometry>
        </mxCell>
        <mxCell id="8_oBKm8_RoXfyE2QBQ6X-24" value="Quantity" style="ellipse;whiteSpace=wrap;html=1;" vertex="1" parent="1">
          <mxGeometry x="625" y="510" width="70" height="40" as="geometry" />
        </mxCell>
        <mxCell id="8_oBKm8_RoXfyE2QBQ6X-25" value="" style="endArrow=none;html=1;rounded=0;" edge="1" parent="1" source="8_oBKm8_RoXfyE2QBQ6X-24" target="8_oBKm8_RoXfyE2QBQ6X-19">
          <mxGeometry width="50" height="50" relative="1" as="geometry">
            <mxPoint x="700" y="410" as="sourcePoint" />
            <mxPoint x="750" y="360" as="targetPoint" />
          </mxGeometry>
        </mxCell>
        <mxCell id="8_oBKm8_RoXfyE2QBQ6X-37" value="date" style="ellipse;whiteSpace=wrap;html=1;" vertex="1" parent="1">
          <mxGeometry x="920" y="330" width="50" height="30" as="geometry" />
        </mxCell>
        <mxCell id="8_oBKm8_RoXfyE2QBQ6X-38" value="&lt;b&gt;&lt;u&gt;ID&lt;/u&gt;&lt;/b&gt;" style="ellipse;whiteSpace=wrap;html=1;" vertex="1" parent="1">
          <mxGeometry x="835" y="330" width="50" height="30" as="geometry" />
        </mxCell>
        <mxCell id="8_oBKm8_RoXfyE2QBQ6X-39" value="Supplier" style="ellipse;whiteSpace=wrap;html=1;" vertex="1" parent="1">
          <mxGeometry x="760" y="330" width="50" height="30" as="geometry" />
        </mxCell>
        <mxCell id="8_oBKm8_RoXfyE2QBQ6X-40" value="" style="endArrow=none;html=1;rounded=0;" edge="1" parent="1" source="EZ-986wShj_iPQbKf8kO-2" target="8_oBKm8_RoXfyE2QBQ6X-39">
          <mxGeometry width="50" height="50" relative="1" as="geometry">
            <mxPoint x="830" y="390" as="sourcePoint" />
            <mxPoint x="880" y="340" as="targetPoint" />
          </mxGeometry>
        </mxCell>
        <mxCell id="8_oBKm8_RoXfyE2QBQ6X-41" value="" style="endArrow=none;html=1;rounded=0;" edge="1" parent="1" source="EZ-986wShj_iPQbKf8kO-2" target="8_oBKm8_RoXfyE2QBQ6X-37">
          <mxGeometry width="50" height="50" relative="1" as="geometry">
            <mxPoint x="844" y="410" as="sourcePoint" />
            <mxPoint x="807" y="368" as="targetPoint" />
          </mxGeometry>
        </mxCell>
        <mxCell id="8_oBKm8_RoXfyE2QBQ6X-42" value="" style="endArrow=none;html=1;rounded=0;" edge="1" parent="1" source="EZ-986wShj_iPQbKf8kO-2" target="8_oBKm8_RoXfyE2QBQ6X-38">
          <mxGeometry width="50" height="50" relative="1" as="geometry">
            <mxPoint x="854" y="420" as="sourcePoint" />
            <mxPoint x="817" y="378" as="targetPoint" />
          </mxGeometry>
        </mxCell>
        <mxCell id="8_oBKm8_RoXfyE2QBQ6X-43" value="name" style="ellipse;whiteSpace=wrap;html=1;" vertex="1" parent="1">
          <mxGeometry x="1150" y="330" width="50" height="35" as="geometry" />
        </mxCell>
        <mxCell id="8_oBKm8_RoXfyE2QBQ6X-44" value="&lt;b&gt;&lt;u&gt;NIF&lt;/u&gt;&lt;/b&gt;" style="ellipse;whiteSpace=wrap;html=1;" vertex="1" parent="1">
          <mxGeometry x="1235" y="327.5" width="50" height="35" as="geometry" />
        </mxCell>
        <mxCell id="8_oBKm8_RoXfyE2QBQ6X-45" value="address" style="ellipse;whiteSpace=wrap;html=1;" vertex="1" parent="1">
          <mxGeometry x="1330" y="340" width="50" height="35" as="geometry" />
        </mxCell>
        <mxCell id="8_oBKm8_RoXfyE2QBQ6X-46" value="FAX" style="ellipse;whiteSpace=wrap;html=1;" vertex="1" parent="1">
          <mxGeometry x="1360" y="425" width="50" height="35" as="geometry" />
        </mxCell>
        <mxCell id="8_oBKm8_RoXfyE2QBQ6X-47" value="payment&lt;div&gt;conditions&lt;/div&gt;" style="ellipse;whiteSpace=wrap;html=1;" vertex="1" parent="1">
          <mxGeometry x="1290" y="490" width="80" height="40" as="geometry" />
        </mxCell>
        <mxCell id="8_oBKm8_RoXfyE2QBQ6X-48" value="" style="endArrow=none;html=1;rounded=0;" edge="1" parent="1" source="EZ-986wShj_iPQbKf8kO-3" target="8_oBKm8_RoXfyE2QBQ6X-43">
          <mxGeometry width="50" height="50" relative="1" as="geometry">
            <mxPoint x="1160" y="440" as="sourcePoint" />
            <mxPoint x="1210" y="390" as="targetPoint" />
          </mxGeometry>
        </mxCell>
        <mxCell id="8_oBKm8_RoXfyE2QBQ6X-49" value="tem" style="rhombus;whiteSpace=wrap;html=1;" vertex="1" parent="1">
          <mxGeometry x="1200" y="485" width="49" height="50" as="geometry" />
        </mxCell>
        <mxCell id="8_oBKm8_RoXfyE2QBQ6X-50" value="" style="endArrow=none;html=1;rounded=0;" edge="1" parent="1" source="EZ-986wShj_iPQbKf8kO-3" target="8_oBKm8_RoXfyE2QBQ6X-49">
          <mxGeometry width="50" height="50" relative="1" as="geometry">
            <mxPoint x="1239" y="410" as="sourcePoint" />
            <mxPoint x="1200" y="372" as="targetPoint" />
          </mxGeometry>
        </mxCell>
        <mxCell id="8_oBKm8_RoXfyE2QBQ6X-61" value="M" style="edgeLabel;html=1;align=center;verticalAlign=middle;resizable=0;points=[];" vertex="1" connectable="0" parent="8_oBKm8_RoXfyE2QBQ6X-50">
          <mxGeometry x="-0.4128" y="-2" relative="1" as="geometry">
            <mxPoint x="-5" y="1" as="offset" />
          </mxGeometry>
        </mxCell>
        <mxCell id="8_oBKm8_RoXfyE2QBQ6X-51" value="Supplier type" style="rounded=1;whiteSpace=wrap;html=1;" vertex="1" parent="1">
          <mxGeometry x="1187" y="565" width="75" height="40" as="geometry" />
        </mxCell>
        <mxCell id="8_oBKm8_RoXfyE2QBQ6X-52" value="" style="endArrow=none;html=1;rounded=0;" edge="1" parent="1" source="8_oBKm8_RoXfyE2QBQ6X-49" target="8_oBKm8_RoXfyE2QBQ6X-51">
          <mxGeometry width="50" height="50" relative="1" as="geometry">
            <mxPoint x="1257" y="470" as="sourcePoint" />
            <mxPoint x="1242" y="503" as="targetPoint" />
          </mxGeometry>
        </mxCell>
        <mxCell id="8_oBKm8_RoXfyE2QBQ6X-62" value="N" style="edgeLabel;html=1;align=center;verticalAlign=middle;resizable=0;points=[];" vertex="1" connectable="0" parent="8_oBKm8_RoXfyE2QBQ6X-52">
          <mxGeometry x="0.4" y="3" relative="1" as="geometry">
            <mxPoint x="3" as="offset" />
          </mxGeometry>
        </mxCell>
        <mxCell id="8_oBKm8_RoXfyE2QBQ6X-53" value="code" style="ellipse;whiteSpace=wrap;html=1;" vertex="1" parent="1">
          <mxGeometry x="1140" y="640" width="60" height="40" as="geometry" />
        </mxCell>
        <mxCell id="8_oBKm8_RoXfyE2QBQ6X-54" value="designation" style="ellipse;whiteSpace=wrap;html=1;" vertex="1" parent="1">
          <mxGeometry x="1260" y="640" width="70" height="40" as="geometry" />
        </mxCell>
        <mxCell id="8_oBKm8_RoXfyE2QBQ6X-55" value="" style="endArrow=none;html=1;rounded=0;" edge="1" parent="1" source="8_oBKm8_RoXfyE2QBQ6X-54" target="8_oBKm8_RoXfyE2QBQ6X-51">
          <mxGeometry width="50" height="50" relative="1" as="geometry">
            <mxPoint x="1160" y="710" as="sourcePoint" />
            <mxPoint x="1210" y="660" as="targetPoint" />
          </mxGeometry>
        </mxCell>
        <mxCell id="8_oBKm8_RoXfyE2QBQ6X-56" value="" style="endArrow=none;html=1;rounded=0;" edge="1" parent="1" source="8_oBKm8_RoXfyE2QBQ6X-53" target="8_oBKm8_RoXfyE2QBQ6X-51">
          <mxGeometry width="50" height="50" relative="1" as="geometry">
            <mxPoint x="1160" y="710" as="sourcePoint" />
            <mxPoint x="1210" y="660" as="targetPoint" />
          </mxGeometry>
        </mxCell>
        <mxCell id="8_oBKm8_RoXfyE2QBQ6X-57" value="" style="endArrow=none;html=1;rounded=0;" edge="1" parent="1" source="EZ-986wShj_iPQbKf8kO-3" target="8_oBKm8_RoXfyE2QBQ6X-47">
          <mxGeometry width="50" height="50" relative="1" as="geometry">
            <mxPoint x="1160" y="570" as="sourcePoint" />
            <mxPoint x="1210" y="520" as="targetPoint" />
          </mxGeometry>
        </mxCell>
        <mxCell id="8_oBKm8_RoXfyE2QBQ6X-58" value="" style="endArrow=none;html=1;rounded=0;" edge="1" parent="1" source="EZ-986wShj_iPQbKf8kO-3" target="8_oBKm8_RoXfyE2QBQ6X-46">
          <mxGeometry width="50" height="50" relative="1" as="geometry">
            <mxPoint x="1160" y="570" as="sourcePoint" />
            <mxPoint x="1210" y="520" as="targetPoint" />
          </mxGeometry>
        </mxCell>
        <mxCell id="8_oBKm8_RoXfyE2QBQ6X-59" value="" style="endArrow=none;html=1;rounded=0;" edge="1" parent="1" source="EZ-986wShj_iPQbKf8kO-3" target="8_oBKm8_RoXfyE2QBQ6X-45">
          <mxGeometry width="50" height="50" relative="1" as="geometry">
            <mxPoint x="1160" y="570" as="sourcePoint" />
            <mxPoint x="1210" y="520" as="targetPoint" />
          </mxGeometry>
        </mxCell>
        <mxCell id="8_oBKm8_RoXfyE2QBQ6X-60" value="" style="endArrow=none;html=1;rounded=0;" edge="1" parent="1" source="EZ-986wShj_iPQbKf8kO-3" target="8_oBKm8_RoXfyE2QBQ6X-44">
          <mxGeometry width="50" height="50" relative="1" as="geometry">
            <mxPoint x="1160" y="570" as="sourcePoint" />
            <mxPoint x="1210" y="520" as="targetPoint" />
          </mxGeometry>
        </mxCell>
      </root>
    </mxGraphModel>
  </diagram>
</mxfile>
